<?xml version="1.0" encoding="utf-8"?>
<!-- Generator: Adobe Illustrator 23.1.1, SVG Export Plug-In . SVG Version: 6.00 Build 0)  -->
<svg version="1.1" id="圖層_1" xmlns="http://www.w3.org/2000/svg" xmlns:xlink="http://www.w3.org/1999/xlink" x="0px" y="0px"
	 viewBox="0 0 32 32" style="enable-background:new 0 0 32 32;" xml:space="preserve">
<style type="text/css">
	.st0{fill:#2B2B2B;}
</style>
<g>
	<title>alipay-logo</title>
	<path class="st0" d="M4.8,4.8h3.7v3.7H4.8V4.8z"/>
	<path class="st0" d="M4.8,23.5h3.7v3.7H4.8V23.5z"/>
	<path class="st0" d="M31,12.2V1H16v3.7h3.7v7.5h3.8V16h3.7v-3.8H31z M21.8,10.1v-7h7.1v7H21.8z"/>
	<path class="st0" d="M23.5,4.8h3.7v3.7h-3.7V4.8z"/>
	<path class="st0" d="M8.5,19.7H1V31h11.2V16H8.5V19.7z M10.1,28.9h-7v-7.1h7V28.9z"/>
	<path class="st0" d="M12.2,8.5V1H1v15h3.7v-3.8H16V8.5H12.2z M10.1,10.1h-7v-7h7V10.1z"/>
	<path class="st0" d="M16,27.2h3.7V31H16V27.2z"/>
	<path class="st0" d="M26.8,19.7h-3.3V16h-3.8v3.7H16v3.8h7.5V31H31v-3.8h-3.8v-3.7H31V16h-3.8v3.7H26.8z"/>
	<path class="st0" d="M16,12.2h3.7V16H16V12.2z"/>
</g>
</svg>
