<?xml version="1.0" encoding="utf-8"?>
<!-- Generator: Adobe Illustrator 22.0.1, SVG Export Plug-In . SVG Version: 6.00 Build 0)  -->
<svg version="1.1" id="圖層_1" xmlns="http://www.w3.org/2000/svg" xmlns:xlink="http://www.w3.org/1999/xlink" x="0px" y="0px"
	 viewBox="0 0 288 288" style="enable-background:new 0 0 288 288;" xml:space="preserve">
<style type="text/css">
	.st0{fill:#B30F73;}
</style>
<g>
	<path class="st0" d="M130.2,245.5c-1.1,0-2,0.3-2.7,1s-1,1.5-1.2,2.6h7.7c-0.1-1.2-0.5-2.1-1.2-2.7
		C132.1,245.9,131.3,245.5,130.2,245.5z"/>
	<path class="st0" d="M186,245.5c-1.3,0-2.3,0.5-3,1.4c-0.7,0.9-1.1,2.2-1.1,3.9c0,1.7,0.4,3,1.1,4c0.7,0.9,1.7,1.4,3,1.4
		c1.3,0,2.3-0.5,3-1.4s1-2.2,1-4c0-1.7-0.3-3-1-3.9S187.3,245.5,186,245.5z"/>
	<path class="st0" d="M93.8,245.8c-1.6,0-2.7,0.7-3.4,2.2c-0.3,0.8-0.5,1.8-0.5,3c0,1.5,0.3,2.7,1,3.6c0.7,1,1.6,1.4,3,1.4
		c1.2,0,2.1-0.5,2.7-1.4c0.6-0.9,1-2.1,1-3.7c0-1.2-0.2-2.2-0.5-3C96.5,246.6,95.4,245.8,93.8,245.8z"/>
	<path class="st0" d="M73.8,245.5c-1.3,0-2.3,0.5-3,1.4c-0.7,0.9-1.1,2.2-1.1,3.9c0,1.7,0.4,3,1.1,4c0.7,0.9,1.7,1.4,3,1.4
		c1.3,0,2.3-0.5,3-1.4s1-2.2,1-4c0-1.7-0.3-3-1-3.9S75.1,245.5,73.8,245.5z"/>
	<path class="st0" d="M205,94.3c11-0.1,20-9.3,19.8-20.1c-0.2-10.7-9.1-19.4-19.8-19.5c-11.1-0.1-19.7,8.6-19.8,19.8
		C185.2,85.8,193.8,94.4,205,94.3z"/>
	<path class="st0" d="M205.1,161.7c-11.1-0.1-19.9,8.6-19.9,19.7c0,11.1,8.9,20.1,19.7,20c10.8-0.1,20-9.5,19.8-20.2
		C224.5,170.5,215.8,161.9,205.1,161.7z"/>
	<path class="st0" d="M224.5,245.5c-1.1,0-2,0.3-2.7,1s-1,1.5-1.2,2.6h7.7c-0.1-1.2-0.5-2.1-1.2-2.7
		C226.5,245.9,225.6,245.5,224.5,245.5z"/>
	<path class="st0" d="M255.3,2.7H32.7c-16.5,0-30,13.5-30,30v222.7c0,16.5,13.5,30,30,30h222.7c16.5,0,30-13.5,30-30V32.7
		C285.3,16.2,271.8,2.7,255.3,2.7z M204.7,28c26,0,46.9,20.7,46.8,46.6c0,25.7-21.2,46.7-46.9,46.7c-25.5-0.1-46.4-20.9-46.6-46.5
		C157.8,49,178.8,28,204.7,28z M36.9,59.1c1.2-24.2,29.2-38.8,51.8-27.4c3.5,1.7,5.9,1.7,9.3,0c25.1-12,53.3,5.9,52,32
		c-0.9,18.8-0.2,37.7-0.2,57.2c-9.9,0-19.1,0-28.9,0c0-10.1,0-19.8,0-29.5c0-9.5,0-19,0-28.6c0-4.7-1.8-8-6.8-7.8
		c-4.7,0.1-6.4,3.3-6.4,7.7c0.1,16.2,0,32.4,0,48.5c0,3,0,6,0,9.6c-9.7,0-18.9,0-28.9,0c0-2.1,0-4.2,0-6.2c0-16.9-0.1-33.9,0-50.8
		c0-4.7-1-8.5-6.4-8.9c-4.5-0.4-6.8,2.9-6.8,9.1c0,16.8,0,33.5,0,50.3c0,2.1,0,4.1,0,7c-9,0-17.5,0.1-26-0.2c-1,0-2.8-2.4-2.8-3.7
		C36.6,97.9,36,78.4,36.9,59.1z M62.1,259.4h-4.6v-10.9c0-0.6-0.1-1.2-0.3-1.6c-0.4-0.8-1.1-1.2-2.2-1.2c-1.2,0-2.1,0.5-2.5,1.5
		c-0.2,0.5-0.4,1.2-0.4,2v10.2h-4.5v-10.2c0-1-0.1-1.7-0.3-2.2c-0.4-0.8-1.1-1.2-2.2-1.2c-1.3,0-2.1,0.4-2.6,1.2
		c-0.2,0.5-0.4,1.2-0.4,2.1v10.3h-4.5v-17H42v2.5c0.6-0.9,1.1-1.5,1.6-1.9c0.9-0.7,2-1,3.4-1c1.3,0,2.4,0.3,3.2,0.9
		c0.6,0.5,1.1,1.2,1.5,2c0.6-1,1.3-1.7,2.2-2.2c0.9-0.5,1.9-0.7,3.1-0.7c0.8,0,1.5,0.1,2.2,0.4c0.7,0.3,1.4,0.8,2,1.5
		c0.5,0.6,0.8,1.3,1,2.2c0.1,0.6,0.2,1.4,0.2,2.5L62.1,259.4z M80.4,257.3c-1.4,1.8-3.6,2.7-6.6,2.7s-5.1-0.9-6.6-2.7
		c-1.4-1.8-2.2-3.9-2.2-6.4c0-2.5,0.7-4.6,2.2-6.4c1.4-1.8,3.6-2.7,6.6-2.7s5.1,0.9,6.6,2.7c1.4,1.8,2.2,3.9,2.2,6.4
		C82.6,253.4,81.8,255.5,80.4,257.3z M100.3,257.2c-1.3,1.7-3,2.6-5.3,2.6c-1.4,0-2.6-0.3-3.4-0.8c-0.5-0.3-1.1-0.9-1.7-1.8v2.1
		h-4.4v-23h4.5v8.2c0.6-0.8,1.2-1.4,1.9-1.8c0.8-0.5,1.8-0.8,3.1-0.8c2.3,0,4,0.8,5.3,2.4s1.9,3.7,1.9,6.3
		C102.2,253.3,101.6,255.5,100.3,257.2z M109.9,259.4h-4.5v-17h4.5V259.4z M109.9,240.3h-4.5v-4.1h4.5V240.3z M118.8,259.4h-4.5
		v-23.1h4.5V259.4z M138.7,252.1h-12.4c0.1,1.7,0.7,2.9,1.8,3.6c0.7,0.4,1.5,0.6,2.5,0.6c1,0,1.8-0.3,2.5-0.8
		c0.3-0.3,0.7-0.7,0.9-1.2h4.6c-0.1,1-0.7,2-1.7,3.1c-1.5,1.7-3.7,2.5-6.4,2.5c-2.3,0-4.3-0.7-6-2.1c-1.7-1.4-2.6-3.7-2.6-6.8
		c0-3,0.8-5.2,2.3-6.8c1.6-1.6,3.6-2.4,6.1-2.4c1.5,0,2.8,0.3,4,0.8c1.2,0.5,2.2,1.4,2.9,2.5c0.7,1,1.2,2.2,1.4,3.5
		C138.6,249.5,138.7,250.6,138.7,252.1z M121.3,227.9c-0.1-2.1-0.3-4.1-0.3-6.1c0-17.3,0.1-34.7-0.2-52c0-2.5-1.9-5.8-4-7.2
		c-1.5-1-5.4-0.1-7,1.4c-1.5,1.3-1.9,4.4-1.9,6.7c-0.1,16.8-0.1,33.5-0.1,50.3c0,2.1,0,4.1,0,6.7c-9.6,0-18.8,0-28.6,0
		c-0.1-2-0.3-4-0.3-6c0-16.9,0-33.9,0-50.8c0-6.3-2.3-9.4-6.8-9c-5.5,0.4-6.5,4.3-6.4,9c0.1,16.8,0,33.5,0,50.3c0,2.1,0,4.1,0,6.7
		c-9.7,0-18.9,0-28,0c-0.3-0.4-0.7-0.7-0.7-1.1c-0.1-20.4-1.2-40.8,0.1-61.1c1.4-24.4,29.4-38.2,52.2-26.7c3,1.5,5.1,1.7,8.3,0.1
		c19.6-10.1,43.5-1.2,50.7,18.7c1,2.8,1.6,5.9,1.6,8.9c0.2,19.2,0.1,38.5,0.1,57.7c0,1.1-0.2,2.2-0.4,3.6
		C140.1,227.9,131,227.9,121.3,227.9z M174.2,259.4h-4.6v-10.9c0-0.6-0.1-1.2-0.3-1.6c-0.4-0.8-1.1-1.2-2.2-1.2
		c-1.2,0-2.1,0.5-2.5,1.5c-0.2,0.5-0.4,1.2-0.4,2v10.2h-4.5v-10.2c0-1-0.1-1.7-0.3-2.2c-0.4-0.8-1.1-1.2-2.2-1.2
		c-1.3,0-2.1,0.4-2.6,1.2c-0.2,0.5-0.4,1.2-0.4,2.1v10.3h-4.5v-17h4.3v2.5c0.6-0.9,1.1-1.5,1.6-1.9c0.9-0.7,2-1,3.4-1
		c1.3,0,2.4,0.3,3.2,0.9c0.6,0.5,1.1,1.2,1.5,2c0.6-1,1.3-1.7,2.2-2.2c0.9-0.5,1.9-0.7,3.1-0.7c0.8,0,1.5,0.1,2.2,0.4
		c0.7,0.3,1.4,0.8,2,1.5c0.5,0.6,0.8,1.3,1,2.2c0.1,0.6,0.2,1.4,0.2,2.5L174.2,259.4z M192.5,257.3c-1.4,1.8-3.6,2.7-6.6,2.7
		s-5.1-0.9-6.6-2.7c-1.4-1.8-2.2-3.9-2.2-6.4c0-2.5,0.7-4.6,2.2-6.4c1.4-1.8,3.6-2.7,6.6-2.7s5.1,0.9,6.6,2.7
		c1.4,1.8,2.2,3.9,2.2,6.4C194.7,253.4,194,255.5,192.5,257.3z M213.3,259.4h-4.6V249c0-0.9-0.1-1.6-0.4-2.1
		c-0.4-0.9-1.3-1.3-2.5-1.3c-1.5,0-2.5,0.6-3.1,1.9c-0.3,0.7-0.4,1.5-0.4,2.6v9.2h-4.5v-17h4.3v2.5c0.6-0.9,1.1-1.5,1.6-1.9
		c0.9-0.7,2.1-1,3.5-1c1.8,0,3.2,0.5,4.3,1.4c1.1,0.9,1.7,2.5,1.7,4.6V259.4z M233,252.1h-12.4c0.1,1.7,0.7,2.9,1.8,3.6
		c0.7,0.4,1.5,0.6,2.5,0.6c1,0,1.8-0.3,2.5-0.8c0.3-0.3,0.7-0.7,0.9-1.2h4.6c-0.1,1-0.7,2-1.7,3.1c-1.5,1.7-3.7,2.5-6.4,2.5
		c-2.3,0-4.3-0.7-6-2.1c-1.7-1.4-2.6-3.7-2.6-6.8c0-3,0.8-5.2,2.3-6.8c1.6-1.6,3.6-2.4,6.1-2.4c1.5,0,2.8,0.3,4,0.8
		c1.2,0.5,2.2,1.4,2.9,2.5c0.7,1,1.2,2.2,1.4,3.5C233,249.5,233,250.6,233,252.1z M244.6,259.1c-1.1,3.2-2,5.2-2.7,6
		c-0.7,0.8-2,1.2-3.9,1.2c-0.4,0-0.7,0-1,0c-0.2,0-0.6,0-1.1-0.1v-3.6l0.6,0c0.4,0,0.9,0,1.3,0c0.4-0.1,0.7-0.2,1-0.4
		c0.3-0.2,0.5-0.5,0.7-1.1c0.2-0.6,0.3-0.9,0.3-1l-6.3-17.8h5l3.7,12.6l3.5-12.6h4.7L244.6,259.1z M204.8,228.2
		c-25.8,0-46.8-21-46.7-46.9c0-25.6,20.9-46.3,46.5-46.3c26.1,0,47.1,20.7,47,46.4C251.5,207.3,230.6,228.2,204.8,228.2z"/>
</g>
</svg>
