<?xml version="1.0" encoding="utf-8"?>
<!-- Generator: Adobe Illustrator 22.0.1, SVG Export Plug-In . SVG Version: 6.00 Build 0)  -->
<svg version="1.1" id="圖層_1" xmlns="http://www.w3.org/2000/svg" xmlns:xlink="http://www.w3.org/1999/xlink" x="0px" y="0px"
	 viewBox="0 0 288 288" style="enable-background:new 0 0 288 288;" xml:space="preserve">
<style type="text/css">
	.st0{fill:#118ACB;}
	.st1{fill:#33B44A;}
	.st2{fill:#39B54A;}
</style>
<g id="XMLID_115_">
	<g id="XMLID_538_">
		<path id="XMLID_273_" class="st0" d="M166.3,50.6c-2.1-2.2-4.8-3.2-8-3.2c-4.8,0-8.2,2.3-10.4,6.9c-4.6-5.5-11-8.2-19.1-8.2
			c-9.7,0-17.8,3.8-24.5,11.2c-6.6,7.5-9.9,16.6-9.9,27.4s3.3,19.9,9.9,27.4c6.6,7.5,14.8,11.2,24.5,11.2c8.1,0,14.5-2.8,19.1-8.2
			c2.2,4.6,5.7,6.9,10.4,6.9c3.2,0,5.9-1.1,8-3.2c2.1-2.2,3.2-4.8,3.2-7.9V58.6C169.4,55.4,168.4,52.8,166.3,50.6z M143.1,97.6
			c-2.7,3.5-6.5,5.3-11.2,5.3c-4.8,0-8.5-1.8-11.2-5.3c-2.7-3.5-4-7.8-4-13s1.3-9.5,4-13c2.7-3.5,6.5-5.3,11.2-5.3
			c4.8,0,8.5,1.8,11.2,5.3c2.7,3.5,4,7.8,4,13C147.2,89.8,145.8,94.1,143.1,97.6z"/>
		<path id="XMLID_272_" class="st0" d="M194.6,118.7c-2.1,2.2-4.8,3.2-8,3.2c-3.2,0-5.9-1.1-8-3.2c-2.1-2.2-3.2-4.8-3.2-7.9V17.2
			c0-3.1,1.1-5.7,3.2-7.9c2.1-2.2,4.8-3.2,8-3.2c3.2,0,5.9,1.1,8,3.2c2.1,2.2,3.2,4.8,3.2,7.9v93.6
			C197.8,113.9,196.7,116.5,194.6,118.7L194.6,118.7z"/>
		<path id="XMLID_269_" class="st0" d="M268.4,57.3c-7.1-7.5-16.2-11.2-27.3-11.2s-20.1,3.7-27.1,11.1c-7,7.4-10.5,16.6-10.5,27.5
			c0,11,3.5,20.1,10.5,27.5c7,7.4,16,11.1,27.1,11.1s20.1-3.8,27.3-11.2c6.9-7.3,10.3-16.4,10.3-27.4
			C278.6,73.7,275.2,64.6,268.4,57.3z M252.3,97.6c-2.7,3.5-6.5,5.3-11.2,5.3c-4.8,0-8.5-1.8-11.2-5.3c-2.7-3.5-4-7.8-4-13
			s1.3-9.5,4-13c2.7-3.5,6.5-5.3,11.2-5.3c4.8,0,8.5,1.8,11.2,5.3c2.7,3.5,4,7.8,4,13C256.3,89.8,255,94.1,252.3,97.6z"/>
		<path id="XMLID_268_" class="st0" d="M82,48.6c7.9-10.2,11.8-17,11.8-20.5c0-8.1-5.1-12.2-15.3-12.2H24.4c-4.2,0-7.5,1-9.8,3
			c-2.4,2-3.5,4.6-3.5,7.8c0,3.2,1.1,5.8,3.5,7.8c2.4,2,5.6,3,9.8,3h37.1L14,99c-3.1,4-4.6,7.6-4.6,10.7c0,9,5.9,13.4,17.7,13.4
			h55.7c8.9,0,13.3-3.8,13.3-11.2c0-7.5-4.4-11.2-13.3-11.2h-41L82,48.6L82,48.6z"/>
	</g>
	<g id="XMLID_288_">
		<path id="XMLID_267_" class="st1" d="M55.4,180.9H41.6v28.8h13.9c4.2,0,7.5-1.3,10.2-4.1c2.6-2.7,3.9-6.2,3.9-10.4
			c0-4.2-1.3-7.6-3.9-10.4C63,182.2,59.6,180.9,55.4,180.9z"/>
		<path id="XMLID_266_" class="st1" d="M124.7,208c-4.4,0-7.9,1.6-10.4,4.8c-2.5,3.2-3.8,7.3-3.8,12c0,4.8,1.3,8.8,3.8,12
			c2.5,3.2,6,4.8,10.4,4.8s7.9-1.6,10.4-4.8c2.5-3.2,3.8-7.3,3.8-12c0-4.8-1.3-8.8-3.8-12C132.5,209.6,129.1,208,124.7,208z"/>
		<path id="XMLID_262_" class="st2" d="M222.7,139.7H21.5c-6.7,0-12.2,5.5-12.2,12.2v117.9c0,6.7,5.5,12.2,12.2,12.2h158.8
			c-1.7-1.6-2.5-3.4-2.5-5.6c0-1.8,0.4-3.6,1.1-5.5l7.5-16.6l-20.7-51.8c-0.6-1.5-0.9-3.1-0.9-4.8c0-2.3,0.9-4.2,2.9-5.7
			c1.9-1.5,3.9-2.4,6-2.4c4.6,0,7.7,2.2,9.4,6.7l12.9,35.3l13.8-35.3c1.8-4.4,4.8-6.7,9.4-6.7c2.1,0,4.1,0.8,6,2.4
			c1.9,1.5,2.9,3.5,2.9,5.7c0,1.8-0.3,3.4-0.9,4.8l-30.6,74.5c-0.8,2.1-1.9,3.7-3,4.9h29.3c6.7,0,12.2-5.5,12.2-12.2V151.8
			C234.9,145.1,229.4,139.7,222.7,139.7z M80.6,219c-6.3,5.8-14.3,8.7-24,8.7H41.6v22.3c0,3.4-0.9,6-2.8,7.8
			c-1.9,1.9-4.4,2.8-7.3,2.8s-5.5-0.9-7.3-2.8c-1.9-1.9-2.8-4.4-2.8-7.8v-76.4c0-7.1,3.6-10.6,10.6-10.6H56c10.1,0,18.4,3,25,9
			c6.6,6.1,9.9,13.9,9.9,23.5C90.7,205.1,87.3,213,80.6,219z M159.4,249.1c0,2.9-0.9,5.3-2.9,7.3c-2,2-4.4,3-7.4,3
			c-4.4,0-7.6-2.1-9.6-6.3c-4.3,5-10.2,7.6-17.7,7.6c-9,0-16.6-3.4-22.7-10.4s-9.2-15.4-9.2-25.4c0-10,3-18.4,9.2-25.4
			c6.1-6.9,13.7-10.4,22.7-10.4c7.5,0,13.4,2.6,17.7,7.6c2-4.2,5.3-6.3,9.6-6.3c3,0,5.5,1,7.4,3c2,2,2.9,4.4,2.9,7.3V249.1z"/>
	</g>
</g>
</svg>
